HIERARCHY
ROOT mixamorig:Hips
{
	OFFSET -0.000008 104.274872 1.554316
	CHANNELS 6 Xposition Yposition Zposition Xrotation Yrotation Zrotation
	JOINT mixamorig:Spine
	{
		OFFSET -0.000005 10.181595 0.131519
		CHANNELS 6 Xposition Yposition Zposition Xrotation Yrotation Zrotation
		JOINT mixamorig:Spine1
		{
			OFFSET -0.000000 9.893959 -1.470707
			CHANNELS 6 Xposition Yposition Zposition Xrotation Yrotation Zrotation
			JOINT mixamorig:Spine2
			{
				OFFSET -0.000000 9.220757 -1.370641
				CHANNELS 6 Xposition Yposition Zposition Xrotation Yrotation Zrotation
				JOINT mixamorig:Neck
				{
					OFFSET 0.000001 16.740417 -2.049036
					CHANNELS 6 Xposition Yposition Zposition Xrotation Yrotation Zrotation
					JOINT mixamorig:Head
					{
						OFFSET 0.000000 9.617874 1.685006
						CHANNELS 6 Xposition Yposition Zposition Xrotation Yrotation Zrotation
						JOINT mixamorig:HeadTop_End
						{
							OFFSET 0.000002 22.037354 7.501101
							CHANNELS 6 Xposition Yposition Zposition Xrotation Yrotation Zrotation
							End Site
							{
								OFFSET 0.000168 2310.654297 -282.823242
							}
						}
					}
				}
				JOINT mixamorig:RightShoulder
				{
					OFFSET -4.569970 11.014908 -2.160885
					CHANNELS 6 Xposition Yposition Zposition Xrotation Yrotation Zrotation
					JOINT mixamorig:RightArm
					{
						OFFSET -10.592851 -0.524811 -2.232101
						CHANNELS 6 Xposition Yposition Zposition Xrotation Yrotation Zrotation
						JOINT mixamorig:RightForeArm
						{
							OFFSET -27.841511 0.000031 -0.000004
							CHANNELS 6 Xposition Yposition Zposition Xrotation Yrotation Zrotation
							JOINT mixamorig:RightHand
							{
								OFFSET -28.328831 -0.000015 0.000015
								CHANNELS 6 Xposition Yposition Zposition Xrotation Yrotation Zrotation
								JOINT mixamorig:RightHandThumb1
								{
									OFFSET -2.464806 -1.573990 2.681852
									CHANNELS 6 Xposition Yposition Zposition Xrotation Yrotation Zrotation
									JOINT mixamorig:RightHandThumb2
									{
										OFFSET -3.215179 -1.872803 1.924282
										CHANNELS 6 Xposition Yposition Zposition Xrotation Yrotation Zrotation
										JOINT mixamorig:RightHandThumb3
										{
											OFFSET -2.654831 -1.527969 1.512609
											CHANNELS 6 Xposition Yposition Zposition Xrotation Yrotation Zrotation
											JOINT mixamorig:RightHandThumb4
											{
												OFFSET -2.018814 -1.152008 1.108052
												CHANNELS 6 Xposition Yposition Zposition Xrotation Yrotation Zrotation
												End Site
												{
													OFFSET -188.809540 -114.533607 132.431396
												}
											}
										}
									}
								}
								JOINT mixamorig:RightHandIndex1
								{
									OFFSET -9.108284 -0.517868 2.259835
									CHANNELS 6 Xposition Yposition Zposition Xrotation Yrotation Zrotation
									JOINT mixamorig:RightHandIndex2
									{
										OFFSET -3.699989 0.000000 0.001215
										CHANNELS 6 Xposition Yposition Zposition Xrotation Yrotation Zrotation
										JOINT mixamorig:RightHandIndex3
										{
											OFFSET -2.850006 0.000031 -0.000522
											CHANNELS 6 Xposition Yposition Zposition Xrotation Yrotation Zrotation
											JOINT mixamorig:RightHandIndex4
											{
												OFFSET -2.772186 -0.000015 -0.000020
												CHANNELS 6 Xposition Yposition Zposition Xrotation Yrotation Zrotation
												End Site
												{
													OFFSET -277.218445 0.000000 -0.050231
												}
											}
										}
									}
								}
								JOINT mixamorig:RightHandMiddle1
								{
									OFFSET -9.532516 -0.000031 -0.000023
									CHANNELS 6 Xposition Yposition Zposition Xrotation Yrotation Zrotation
									JOINT mixamorig:RightHandMiddle2
									{
										OFFSET -3.700005 -0.000015 0.003713
										CHANNELS 6 Xposition Yposition Zposition Xrotation Yrotation Zrotation
										JOINT mixamorig:RightHandMiddle3
										{
											OFFSET -2.949974 0.000015 -0.002054
											CHANNELS 6 Xposition Yposition Zposition Xrotation Yrotation Zrotation
											JOINT mixamorig:RightHandMiddle4
											{
												OFFSET -2.946640 0.000000 -0.000156
												CHANNELS 6 Xposition Yposition Zposition Xrotation Yrotation Zrotation
												End Site
												{
													OFFSET -294.664337 0.000000 -0.113670
												}
											}
										}
									}
								}
								JOINT mixamorig:RightHandRing1
								{
									OFFSET -9.103600 -0.043076 -1.865134
									CHANNELS 6 Xposition Yposition Zposition Xrotation Yrotation Zrotation
									JOINT mixamorig:RightHandRing2
									{
										OFFSET -3.379288 0.000000 -0.001055
										CHANNELS 6 Xposition Yposition Zposition Xrotation Yrotation Zrotation
										JOINT mixamorig:RightHandRing3
										{
											OFFSET -2.889687 -0.000015 0.000379
											CHANNELS 6 Xposition Yposition Zposition Xrotation Yrotation Zrotation
											JOINT mixamorig:RightHandRing4
											{
												OFFSET -2.638809 -0.000015 0.000941
												CHANNELS 6 Xposition Yposition Zposition Xrotation Yrotation Zrotation
												End Site
												{
													OFFSET -263.880371 0.000000 0.516020
												}
											}
										}
									}
								}
								JOINT mixamorig:RightHandPinky1
								{
									OFFSET -8.076683 -0.486710 -3.806280
									CHANNELS 6 Xposition Yposition Zposition Xrotation Yrotation Zrotation
									JOINT mixamorig:RightHandPinky2
									{
										OFFSET -3.600014 -0.000015 -0.003747
										CHANNELS 6 Xposition Yposition Zposition Xrotation Yrotation Zrotation
										JOINT mixamorig:RightHandPinky3
										{
											OFFSET -2.099983 0.000000 -0.005739
											CHANNELS 6 Xposition Yposition Zposition Xrotation Yrotation Zrotation
											JOINT mixamorig:RightHandPinky4
											{
												OFFSET -2.115768 -0.000031 -0.003680
												CHANNELS 6 Xposition Yposition Zposition Xrotation Yrotation Zrotation
												End Site
												{
													OFFSET -211.577087 0.000000 -0.350686
												}
											}
										}
									}
								}
							}
						}
					}
				}
				JOINT mixamorig:LeftShoulder
				{
					OFFSET 4.570447 11.014725 -2.160855
					CHANNELS 6 Xposition Yposition Zposition Xrotation Yrotation Zrotation
					JOINT mixamorig:LeftArm
					{
						OFFSET 10.592371 -0.524597 -2.232119
						CHANNELS 6 Xposition Yposition Zposition Xrotation Yrotation Zrotation
						JOINT mixamorig:LeftForeArm
						{
							OFFSET 27.841532 -0.000031 0.000026
							CHANNELS 6 Xposition Yposition Zposition Xrotation Yrotation Zrotation
							JOINT mixamorig:LeftHand
							{
								OFFSET 28.328846 -0.000061 0.000022
								CHANNELS 6 Xposition Yposition Zposition Xrotation Yrotation Zrotation
								JOINT mixamorig:LeftHandThumb1
								{
									OFFSET 2.466141 -1.576172 2.681732
									CHANNELS 6 Xposition Yposition Zposition Xrotation Yrotation Zrotation
									JOINT mixamorig:LeftHandThumb2
									{
										OFFSET 3.217812 -1.872070 1.916482
										CHANNELS 6 Xposition Yposition Zposition Xrotation Yrotation Zrotation
										JOINT mixamorig:LeftHandThumb3
										{
											OFFSET 2.656029 -1.528778 1.514513
											CHANNELS 6 Xposition Yposition Zposition Xrotation Yrotation Zrotation
											JOINT mixamorig:LeftHandThumb4
											{
												OFFSET 2.020889 -1.154053 1.115139
												CHANNELS 6 Xposition Yposition Zposition Xrotation Yrotation Zrotation
												End Site
												{
													OFFSET 190.885437 -115.081749 130.048782
												}
											}
										}
									}
								}
								JOINT mixamorig:LeftHandIndex1
								{
									OFFSET 9.109314 -0.518021 2.259871
									CHANNELS 6 Xposition Yposition Zposition Xrotation Yrotation Zrotation
									JOINT mixamorig:LeftHandIndex2
									{
										OFFSET 3.699989 0.000000 -0.000322
										CHANNELS 6 Xposition Yposition Zposition Xrotation Yrotation Zrotation
										JOINT mixamorig:LeftHandIndex3
										{
											OFFSET 2.850006 0.000000 0.000352
											CHANNELS 6 Xposition Yposition Zposition Xrotation Yrotation Zrotation
											JOINT mixamorig:LeftHandIndex4
											{
												OFFSET 2.774864 -0.000031 -0.000027
												CHANNELS 6 Xposition Yposition Zposition Xrotation Yrotation Zrotation
												End Site
												{
													OFFSET 277.486267 0.000000 -0.009857
												}
											}
										}
									}
								}
								JOINT mixamorig:LeftHandMiddle1
								{
									OFFSET 9.533394 0.000061 0.000044
									CHANNELS 6 Xposition Yposition Zposition Xrotation Yrotation Zrotation
									JOINT mixamorig:LeftHandMiddle2
									{
										OFFSET 3.699989 -0.000015 -0.000231
										CHANNELS 6 Xposition Yposition Zposition Xrotation Yrotation Zrotation
										JOINT mixamorig:LeftHandMiddle3
										{
											OFFSET 2.949997 -0.000015 -0.000059
											CHANNELS 6 Xposition Yposition Zposition Xrotation Yrotation Zrotation
											JOINT mixamorig:LeftHandMiddle4
											{
												OFFSET 2.952896 0.000031 0.000063
												CHANNELS 6 Xposition Yposition Zposition Xrotation Yrotation Zrotation
												End Site
												{
													OFFSET 295.289337 0.000000 0.022810
												}
											}
										}
									}
								}
								JOINT mixamorig:LeftHandRing1
								{
									OFFSET 9.104523 -0.042999 -1.865074
									CHANNELS 6 Xposition Yposition Zposition Xrotation Yrotation Zrotation
									JOINT mixamorig:LeftHandRing2
									{
										OFFSET 3.150009 -0.000031 0.000043
										CHANNELS 6 Xposition Yposition Zposition Xrotation Yrotation Zrotation
										JOINT mixamorig:LeftHandRing3
										{
											OFFSET 2.949982 -0.000015 0.000040
											CHANNELS 6 Xposition Yposition Zposition Xrotation Yrotation Zrotation
											JOINT mixamorig:LeftHandRing4
											{
												OFFSET 2.644348 0.000000 0.000057
												CHANNELS 6 Xposition Yposition Zposition Xrotation Yrotation Zrotation
												End Site
												{
													OFFSET 264.434631 0.000000 0.012105
												}
											}
										}
									}
								}
								JOINT mixamorig:LeftHandPinky1
								{
									OFFSET 8.077789 -0.486847 -3.806259
									CHANNELS 6 Xposition Yposition Zposition Xrotation Yrotation Zrotation
									JOINT mixamorig:LeftHandPinky2
									{
										OFFSET 3.599953 0.000031 0.014727
										CHANNELS 6 Xposition Yposition Zposition Xrotation Yrotation Zrotation
										JOINT mixamorig:LeftHandPinky3
										{
											OFFSET 2.100021 0.000015 0.007705
											CHANNELS 6 Xposition Yposition Zposition Xrotation Yrotation Zrotation
											JOINT mixamorig:LeftHandPinky4
											{
												OFFSET 2.125504 0.000031 0.007517
												CHANNELS 6 Xposition Yposition Zposition Xrotation Yrotation Zrotation
												End Site
												{
													OFFSET 212.550781 0.000000 0.625752
												}
											}
										}
									}
								}
							}
						}
					}
				}
			}
		}
	}
	JOINT mixamorig:RightUpLeg
	{
		OFFSET -8.207787 -6.751648 -1.599560
		CHANNELS 6 Xposition Yposition Zposition Xrotation Yrotation Zrotation
		JOINT mixamorig:RightLeg
		{
			OFFSET -0.000002 -44.370117 0.345942
			CHANNELS 6 Xposition Yposition Zposition Xrotation Yrotation Zrotation
			JOINT mixamorig:RightFoot
			{
				OFFSET 0.000003 -44.423679 -3.043532
				CHANNELS 6 Xposition Yposition Zposition Xrotation Yrotation Zrotation
				JOINT mixamorig:RightToeBase
				{
					OFFSET -0.000002 -8.728671 10.710558
					CHANNELS 6 Xposition Yposition Zposition Xrotation Yrotation Zrotation
					JOINT mixamorig:RightToe_End
					{
						OFFSET -0.000001 -0.000679 9.278119
						CHANNELS 6 Xposition Yposition Zposition Xrotation Yrotation Zrotation
						End Site
						{
							OFFSET 0.000000 -0.067690 927.812134
						}
					}
				}
			}
		}
	}
	JOINT mixamorig:LeftUpLeg
	{
		OFFSET 8.207793 -6.751686 -1.599556
		CHANNELS 6 Xposition Yposition Zposition Xrotation Yrotation Zrotation
		JOINT mixamorig:LeftLeg
		{
			OFFSET -0.000004 -44.370014 0.346954
			CHANNELS 6 Xposition Yposition Zposition Xrotation Yrotation Zrotation
			JOINT mixamorig:LeftFoot
			{
				OFFSET -0.000001 -44.423672 -3.044401
				CHANNELS 6 Xposition Yposition Zposition Xrotation Yrotation Zrotation
				JOINT mixamorig:LeftToeBase
				{
					OFFSET -0.000002 -8.728669 10.710558
					CHANNELS 6 Xposition Yposition Zposition Xrotation Yrotation Zrotation
					JOINT mixamorig:LeftToe_End
					{
						OFFSET -0.000003 -0.000679 9.278133
						CHANNELS 6 Xposition Yposition Zposition Xrotation Yrotation Zrotation
						End Site
						{
							OFFSET 0.000000 -0.068021 927.813477
						}
					}
				}
			}
		}
	}
}
MOTION
Frames: 3
Frame Time: 0.033333
0.000006 104.270477 1.554256 0.000010 0.000003 -0.000113 -0.000005 10.181587 0.131522 0.000001 -0.000003 0.000084 -0.000000 9.893967 -1.470711 0.000001 0.000000 -0.000000 -0.000000 9.220802 -1.370642 0.000000 -0.000000 -0.000000 0.000001 16.740433 -2.049030 0.000000 -0.000000 -0.000000 0.000000 9.617859 1.685014 0.000000 0.000000 0.000000 0.000002 22.037384 7.501101 0.000000 -0.000000 0.000000 -4.569968 11.014880 -2.160881 0.000008 0.000001 -0.000038 -10.592876 -0.524753 -2.231917 73.763154 26.797796 -20.267616 -27.841530 0.000029 0.000533 -60.135998 107.500429 76.587232 -28.328825 0.000002 0.000023 -0.000317 -0.000045 0.000009 -2.464438 -1.573851 2.682370 -39.303767 -158.891005 9.889729 -3.215271 -1.872584 1.924642 155.512329 32.828816 10.309746 -2.654943 -1.527898 1.513091 148.787352 25.834236 -43.633181 -2.018830 -1.152015 1.108060 -0.000004 -0.000003 0.000000 -9.108382 -0.517562 2.260116 96.785215 16.780573 -18.912189 -3.700068 0.000317 0.001510 93.988772 14.103807 -15.084734 -2.850077 0.000367 -0.000271 92.729121 11.240686 -11.784530 -2.772178 -0.000003 -0.000020 0.000000 0.000000 -0.000000 -9.532585 0.000278 0.000242 93.669365 15.533783 -16.698805 -3.700073 0.000339 0.003971 91.860041 11.721061 -12.007745 -2.950057 0.000340 -0.001808 91.167268 11.082324 -11.301759 -2.946619 0.000003 -0.000151 -0.000004 0.000001 0.000000 -9.103697 -0.042760 -1.864900 90.521952 18.084688 -18.201991 -3.379327 0.000308 -0.000837 88.589555 9.488244 -9.275415 -2.889739 0.000346 0.000599 91.527766 5.816732 -6.019687 -2.638818 -0.000003 0.000943 -0.000001 0.000000 -0.000002 -8.076756 -0.486390 -3.806036 81.794507 17.586135 -15.129856 -3.600037 0.000275 -0.003550 83.427195 7.503127 -6.377089 -2.099995 0.000318 -0.005533 83.886054 4.028114 -3.427306 -2.115778 -0.000041 -0.003682 0.000003 0.000000 -0.000005 4.570446 11.014691 -2.160851 -0.000018 0.000010 -0.000021 10.592400 -0.524478 -2.232346 72.534819 -13.024070 9.574844 27.841816 0.000089 -0.000222 98.256909 -69.895785 77.847996 28.328831 -0.000029 0.000021 0.000020 -0.000088 0.000000 2.466120 -1.576151 2.681884 -16.062856 157.079666 -54.991776 3.217821 -1.871752 1.916386 162.321713 -29.567773 9.766248 2.656121 -1.528656 1.514467 140.405576 -27.495961 50.600497 2.020898 -1.154072 1.115149 0.000001 0.000003 0.000006 9.109362 -0.517863 2.259741 84.157588 -18.765547 16.959761 3.700051 0.000132 -0.000451 78.779129 -17.224248 14.192266 2.850067 0.000155 0.000198 76.070993 -13.790536 10.807289 2.774873 -0.000031 -0.000029 0.000001 -0.000003 0.000003 9.533455 0.000205 -0.000100 83.814597 -15.928592 14.305484 3.700054 0.000164 -0.000382 84.340747 -13.020952 11.801056 2.950040 0.000156 -0.000193 82.899659 -15.928865 14.090436 2.952884 -0.000045 0.000067 0.000002 0.000001 -0.000001 9.104579 -0.042857 -1.865231 81.227902 -14.394122 12.362165 3.150050 0.000199 -0.000096 87.094932 -10.852360 10.320285 2.950011 0.000165 -0.000084 87.863731 -12.698234 12.238699 2.644325 0.000013 0.000053 -0.000000 0.000001 -0.000000 8.077825 -0.486740 -3.806422 70.702703 -15.903004 11.739759 3.599995 0.000167 0.014550 75.490850 -12.253174 9.893725 2.100033 0.000172 0.007547 77.403877 -11.789338 9.845602 2.125515 0.000001 0.007512 0.000000 0.000001 0.000001 -8.207786 -6.751667 -1.599560 -0.077001 -0.000003 0.000080 -0.000002 -44.370110 0.345938 0.153719 -0.000000 -0.000000 0.000000 -44.423679 -3.043532 -0.076700 0.000000 -0.000002 -0.000006 -8.728667 10.710559 -0.000009 -0.000000 -0.000000 -0.000001 -0.000679 9.278123 0.000000 -0.000000 -0.000000 8.207792 -6.751710 -1.599556 -0.074518 -0.000003 0.000081 -0.000002 -44.370014 0.346960 0.148822 0.000002 0.000000 -0.000001 -44.423664 -3.044403 -0.074314 0.000000 -0.000002 -0.000004 -8.728671 10.710558 0.000007 -0.000000 -0.000000 0.000000 -0.000680 9.278137 -0.000000 0.000000 -0.000001 
0.000006 104.270477 1.554256 0.000010 0.000003 -0.000113 -0.000005 10.181587 0.131522 0.000001 -0.000003 0.000084 -0.000000 9.893967 -1.470711 0.000001 0.000000 -0.000000 -0.000000 9.220802 -1.370642 0.000000 -0.000000 -0.000000 0.000001 16.740433 -2.049030 0.000000 -0.000000 -0.000000 0.000000 9.617859 1.685014 0.000000 0.000000 0.000000 0.000002 22.037384 7.501101 0.000000 -0.000000 0.000000 -4.569968 11.014880 -2.160881 0.000008 0.000001 -0.000038 -10.592869 -0.524774 -2.231898 74.059509 31.652135 -24.140216 -27.841532 0.000017 0.000544 -56.576755 104.539870 69.642788 -28.328814 0.000021 0.000031 -0.000324 -0.000042 0.000007 -2.464417 -1.573809 2.682340 -44.925142 -159.376317 -3.127394 -3.215267 -1.872558 1.924634 152.032061 32.505772 12.335237 -2.654957 -1.527858 1.513067 144.812373 27.363816 -37.048309 -2.018841 -1.152001 1.108068 -0.000002 -0.000004 -0.000001 -9.108376 -0.517553 2.260099 94.257942 16.894550 -18.228561 -3.700092 0.000312 0.001475 92.196270 13.767208 -14.275298 -2.850082 0.000362 -0.000278 91.683637 11.114304 -11.442670 -2.772143 -0.000014 -0.000019 0.000003 -0.000001 0.000001 -9.532586 0.000259 0.000237 90.858462 16.680621 -17.074134 -3.700076 0.000323 0.003958 91.866270 12.190849 -12.493522 -2.950039 0.000321 -0.001810 94.561353 11.795838 -12.758908 -2.946640 -0.000014 -0.000155 -0.000003 0.000001 0.000000 -9.103715 -0.042763 -1.864882 88.352472 18.614058 -18.051189 -3.379345 0.000325 -0.000831 90.026592 9.565945 -9.587700 -2.889764 0.000353 0.000648 97.647465 6.671588 -7.676488 -2.638807 -0.000017 0.000942 -0.000000 -0.000000 -0.000001 -8.076742 -0.486396 -3.806031 80.186353 19.129227 -16.017367 -3.600049 0.000275 -0.003540 82.792930 9.233536 -7.826381 -2.099996 0.000318 -0.005500 87.721383 5.141469 -4.731868 -2.115786 -0.000040 -0.003679 0.000001 0.000001 -0.000005 4.570446 11.014691 -2.160851 -0.000018 0.000010 -0.000021 10.592387 -0.524490 -2.232340 72.258026 -8.554600 6.250278 27.841825 0.000074 -0.000217 99.860248 -71.678860 81.301449 28.328833 -0.000028 0.000023 0.000023 -0.000088 -0.000000 2.466279 -1.576063 2.681837 0.616825 167.011758 -91.072158 3.217862 -1.871813 1.916403 168.164530 -23.305369 32.391796 2.656111 -1.528679 1.514500 141.339714 -26.421586 64.213443 2.020895 -1.154069 1.115155 0.000001 -0.000001 0.000004 9.109387 -0.517874 2.259723 81.814608 -20.586595 17.873736 3.700046 0.000134 -0.000469 79.706962 -13.445080 11.253196 2.850030 0.000187 0.000190 78.878132 -10.014055 8.242818 2.774864 -0.000045 -0.000027 -0.000000 0.000003 -0.000000 9.533478 0.000185 -0.000077 81.894713 -18.939481 16.462281 3.700048 0.000177 -0.000383 84.787742 -10.460487 9.551698 2.950055 0.000175 -0.000199 85.779089 -10.347910 9.618597 2.952867 -0.000015 0.000068 -0.000000 0.000002 -0.000001 9.104603 -0.042867 -1.865221 81.307876 -18.482859 15.909756 3.150041 0.000195 -0.000089 85.965847 -11.099870 10.350537 2.950024 0.000190 -0.000099 87.278425 -9.206260 8.782361 2.644333 0.000015 0.000056 0.000000 0.000002 -0.000000 8.077864 -0.486741 -3.806400 73.490622 -19.792625 15.303445 3.599998 0.000170 0.014559 75.132238 -15.332002 12.226913 2.100045 0.000173 0.007535 77.042594 -10.952283 9.109800 2.125509 -0.000018 0.007512 -0.000003 -0.000002 0.000001 -8.207786 -6.751667 -1.599560 -0.077001 -0.000003 0.000080 -0.000002 -44.370110 0.345938 0.153719 -0.000000 -0.000000 0.000000 -44.423679 -3.043532 -0.076700 0.000000 -0.000002 -0.000006 -8.728667 10.710559 -0.000009 -0.000000 -0.000000 -0.000001 -0.000679 9.278123 0.000000 -0.000000 -0.000000 8.207792 -6.751710 -1.599556 -0.074518 -0.000003 0.000081 -0.000002 -44.370014 0.346960 0.148822 0.000002 0.000000 -0.000001 -44.423664 -3.044403 -0.074314 0.000000 -0.000002 -0.000004 -8.728671 10.710558 0.000007 -0.000000 -0.000000 0.000000 -0.000680 9.278137 -0.000000 0.000000 -0.000001 
0.000006 104.270477 1.554256 0.000010 0.000003 -0.000113 -0.000005 10.181587 0.131522 0.000001 -0.000003 0.000084 -0.000000 9.893967 -1.470711 0.000001 0.000000 -0.000000 -0.000000 9.220802 -1.370642 0.000000 -0.000000 -0.000000 0.000001 16.740433 -2.049030 0.000000 -0.000000 -0.000000 0.000000 9.617859 1.685014 0.000000 0.000000 0.000000 0.000002 22.037384 7.501101 0.000000 -0.000000 0.000000 -4.569968 11.014880 -2.160881 0.000008 0.000001 -0.000038 -10.592869 -0.524778 -2.231871 74.190109 35.513118 -27.223642 -27.841524 0.000009 0.000549 -55.290306 103.097416 66.821298 -28.328838 0.000011 0.000033 -0.000321 -0.000041 0.000005 -2.464406 -1.573784 2.682332 -46.742342 -161.917352 -7.176310 -3.215280 -1.872602 1.924652 153.897617 31.774259 5.456961 -2.654965 -1.527893 1.513082 144.707093 27.210616 -39.314798 -2.018816 -1.151997 1.108059 -0.000002 -0.000003 0.000004 -9.108378 -0.517549 2.260114 93.936910 17.147449 -18.398296 -3.700069 0.000319 0.001493 91.821231 13.790140 -14.206694 -2.850086 0.000369 -0.000284 90.894361 11.011143 -11.182349 -2.772181 0.000000 -0.000021 0.000002 -0.000001 0.000001 -9.532591 0.000262 0.000236 90.541958 17.079561 -17.384524 -3.700077 0.000307 0.003954 91.683617 12.221651 -12.485706 -2.950066 0.000338 -0.001806 93.921521 11.673632 -12.487323 -2.946628 -0.000012 -0.000155 -0.000003 0.000000 0.000001 -9.103693 -0.042765 -1.864875 87.785792 18.767126 -18.023807 -3.379344 0.000304 -0.000816 89.958133 9.836097 -9.846316 -2.889740 0.000356 0.000641 97.227599 6.646379 -7.591526 -2.638829 -0.000001 0.000940 -0.000000 -0.000002 0.000002 -8.076744 -0.486392 -3.806048 79.756037 19.144575 -15.910103 -3.600029 0.000271 -0.003544 82.536347 9.644862 -8.151036 -2.100008 0.000323 -0.005502 87.769017 5.324524 -4.911327 -2.115771 -0.000042 -0.003676 0.000002 0.000002 -0.000005 4.570446 11.014691 -2.160851 -0.000018 0.000010 -0.000021 10.592403 -0.524477 -2.232360 71.871164 -15.175620 11.030359 27.841820 0.000057 -0.000192 101.413904 -73.657573 84.928300 28.328825 -0.000028 0.000022 0.000022 -0.000088 -0.000001 2.466260 -1.576063 2.681826 5.130770 169.384757 -99.405993 3.217871 -1.871824 1.916410 167.250446 -22.918107 34.277581 2.656090 -1.528695 1.514497 141.254295 -26.591518 61.986911 2.020890 -1.154071 1.115150 0.000002 0.000003 0.000006 9.109375 -0.517884 2.259741 81.665054 -20.628826 17.864204 3.700051 0.000139 -0.000475 80.256622 -13.380510 11.307981 2.850056 0.000185 0.000201 79.152180 -10.133661 8.382035 2.774878 -0.000016 -0.000024 0.000001 0.000004 0.000000 9.533463 0.000181 -0.000091 82.243216 -18.910955 16.537227 3.700036 0.000184 -0.000401 85.026225 -10.475462 9.605264 2.950049 0.000182 -0.000215 85.837740 -10.442766 9.716736 2.952873 -0.000030 0.000056 -0.000000 0.000001 0.000000 9.104589 -0.042864 -1.865224 81.617188 -18.417228 15.938680 3.150044 0.000193 -0.000111 85.980136 -11.397652 10.631052 2.950026 0.000182 -0.000093 87.233591 -9.580158 9.132008 2.644325 0.000031 0.000063 0.000001 0.000001 0.000000 8.077838 -0.486741 -3.806378 74.050281 -19.684602 15.374686 3.599995 0.000157 0.014571 74.874200 -15.655381 12.421473 2.100047 0.000171 0.007551 77.053871 -11.484008 9.539037 2.125520 -0.000029 0.007512 0.000000 0.000002 -0.000000 -8.207786 -6.751667 -1.599560 -0.077001 -0.000003 0.000080 -0.000002 -44.370110 0.345938 0.153719 -0.000000 -0.000000 0.000000 -44.423679 -3.043532 -0.076700 0.000000 -0.000002 -0.000006 -8.728667 10.710559 -0.000009 -0.000000 -0.000000 -0.000001 -0.000679 9.278123 0.000000 -0.000000 -0.000000 8.207792 -6.751710 -1.599556 -0.074518 -0.000003 0.000081 -0.000002 -44.370014 0.346960 0.148822 0.000002 0.000000 -0.000001 -44.423664 -3.044403 -0.074314 0.000000 -0.000002 -0.000004 -8.728671 10.710558 0.000007 -0.000000 -0.000000 0.000000 -0.000680 9.278137 -0.000000 0.000000 -0.000001 
